<svg width="50" height="18" viewBox="0 0 50 18" fill="none" xmlns="http://www.w3.org/2000/svg">
<path d="M49.3 6.9V17.1C49.3 17.5 48.9 17.9 48.5 17.9L1.5 17.8C1.1 17.8 0.699997 17.4 0.699997 17L0.999997 12.8C1.2 10.2 3.2 8.2 5.7 7.8L12.4 7.2L18.3 3.4C21.3 1.5 24.7 0.400001 28.2 0.200001C31.9 8.12113e-07 35.5 0.7 38.7 2.4C41.7 3.9 45 5.6 45.4 5.8C46.5 6.6 47.9 6.9 49.3 6.9Z" fill="#306CC4"/>
<path d="M45 15.3C44 14 42.4 13.1 40.6 13.1C38.8 13.1 37.2 14 36.2 15.3H13.5C12.5 13.9 10.9 13 9.1 13C7.3 13 5.7 13.9 4.7 15.3H0.799997L0.699997 17C0.699997 17.4 1.1 17.8 1.5 17.8H14.6L48.6 17.9C49 17.9 49.4 17.5 49.4 17.1V15.2H45V15.3Z" fill="#20599E"/>
</svg>
