<svg width="10" height="9" viewBox="0 0 10 9" fill="none" xmlns="http://www.w3.org/2000/svg">
<path d="M9.6 4.5C9.6 7 7.6 9 5.1 9C2.6 9 0.599998 7 0.599998 4.5C0.599998 2 2.6 0 5.1 0C7.6 0 9.6 2 9.6 4.5Z" fill="#363D44"/>
<path d="M8.1 4.5C8.1 6.2 6.8 7.5 5.1 7.5C3.4 7.5 2.1 6.2 2.1 4.5C2.1 2.8 3.4 1.5 5.1 1.5C6.7 1.5 8.1 2.9 8.1 4.5Z" fill="#A9B8C9"/>
<path d="M5.1 7.8C3.3 7.8 1.9 6.3 1.9 4.6C1.9 2.9 3.4 1.4 5.1 1.4C6.8 1.4 8.3 2.9 8.3 4.6C8.3 6.3 6.9 7.8 5.1 7.8ZM5.1 1.8C3.6 1.8 2.3 3 2.3 4.6C2.3 6.2 3.5 7.4 5.1 7.4C6.7 7.4 7.9 6.2 7.9 4.6C7.9 3 6.6 1.8 5.1 1.8Z" fill="#BFCFE0"/>
<path d="M5.1 6.1C5.98365 6.1 6.7 5.38366 6.7 4.5C6.7 3.61634 5.98365 2.9 5.1 2.9C4.21634 2.9 3.5 3.61634 3.5 4.5C3.5 5.38366 4.21634 6.1 5.1 6.1Z" fill="white"/>
</svg>
