<svg width="28" height="7" viewBox="0 0 28 7" fill="none" xmlns="http://www.w3.org/2000/svg">
<path d="M17.2 5.7L27.6 5.3C27.3 5.1 24.6 3.7 22.2 2.5C20.6 1.7 18.9 1.1 17.2 0.9V5.7Z" fill="#7BE3FF"/>
<path d="M15.8 0.6C14.9 0.5 14.4 0.5 13.5 0.6L12.6 0.7C9.79999 1 7.1 1.9 4.7 3.5L0.299995 6.4L15.8 5.7V0.6Z" fill="#7BE3FF"/>
<path d="M4.7 3.4L0.299995 6.3L7 6L5.8 2.7C5.4 3 5.1 3.2 4.7 3.4Z" fill="#9FEDFF"/>
<path d="M6.6 2.4L8 6.1L9.4 6L7.8 1.8C7.4 2 7 2.2 6.6 2.4Z" fill="#9FEDFF"/>
<path d="M22.2 2.4C22 2.3 21.7 2.2 21.5 2.1L22.8 5.5L27.7 5.3C27.3 5 24.6 3.6 22.2 2.4Z" fill="#9FEDFF"/>
<path d="M18.7 1L20.4 5.5H21.2L19.6 1.3C19.3 1.2 19 1.1 18.7 1Z" fill="#9FEDFF"/>
</svg>
